HIERARCHY
ROOT SimulationBone
{
	OFFSET 0.000000 0.000000 0.000000
	CHANNELS 6 Xposition Yposition Zposition Zrotation Yrotation Xrotation 
	JOINT Hips
	{
		OFFSET 0.000000 0.000000 0.000000
		CHANNELS 6 Xposition Yposition Zposition Zrotation Yrotation Xrotation 
		JOINT RightUpLeg
		{
			OFFSET 0.103461 1.857828 10.548504
			CHANNELS 3 Zrotation Yrotation Xrotation
			JOINT RightLeg
			{
				OFFSET 43.500008 -0.000031 0.000006
				CHANNELS 3 Zrotation Yrotation Xrotation
				JOINT RightFoot
				{
					OFFSET 42.372200 0.000019 -0.000010
					CHANNELS 3 Zrotation Yrotation Xrotation
					JOINT RightToe
					{
						OFFSET 17.299999 -0.000000 0.000002
						CHANNELS 3 Zrotation Yrotation Xrotation
						End Site
						{
							OFFSET 0.000000 0.000000 0.000000
						}
					}
				}
			}
		}
		JOINT LeftUpLeg
		{
			OFFSET 0.103457 1.857829 -10.548504
			CHANNELS 3 Zrotation Yrotation Xrotation
			JOINT LeftLeg
			{
				OFFSET 43.500046 -0.000019 0.000011
				CHANNELS 3 Zrotation Yrotation Xrotation
				JOINT LeftFoot
				{
					OFFSET 42.372261 0.000000 0.000008
					CHANNELS 3 Zrotation Yrotation Xrotation
					JOINT LeftToe
					{
						OFFSET 17.299990 -0.000006 0.000008
						CHANNELS 3 Zrotation Yrotation Xrotation
						End Site
						{
							OFFSET 0.000000 0.000000 0.000000
						}
					}
				}
			}
		}
		JOINT Spine
		{
			OFFSET 6.901969 -2.603727 -0.000006
			CHANNELS 3 Zrotation Yrotation Xrotation
			JOINT Spine1
			{
				OFFSET 12.588100 -0.000002 0.000002
				CHANNELS 3 Zrotation Yrotation Xrotation
				JOINT Spine2
				{
					OFFSET 12.343195 0.000004 0.000008
					CHANNELS 3 Zrotation Yrotation Xrotation
					JOINT Neck
					{
						OFFSET 25.832905 -0.000008 -0.000002
						CHANNELS 3 Zrotation Yrotation Xrotation
						JOINT Head
						{
							OFFSET 11.766608 0.000010 -0.000008
							CHANNELS 3 Zrotation Yrotation Xrotation
							End Site
							{
								OFFSET 0.000000 0.000000 0.000000
							}
						}
					}
					JOINT RightShoulder
					{
						OFFSET 19.745903 -1.480370 6.000106
						CHANNELS 3 Zrotation Yrotation Xrotation
						JOINT RightArm
						{
							OFFSET 11.284119 -0.000006 -0.000014
							CHANNELS 3 Zrotation Yrotation Xrotation
							JOINT RightForeArm
							{
								OFFSET 33.000050 0.000004 0.000026
								CHANNELS 3 Zrotation Yrotation Xrotation
								JOINT RightHand
								{
									OFFSET 25.200020 0.000017 0.000004
									CHANNELS 3 Zrotation Yrotation Xrotation
									End Site
									{
										OFFSET 0.000000 0.000000 0.000000
									}
								}
							}
						}
					}
					JOINT LeftShoulder
					{
						OFFSET 19.746099 -1.480375 -6.000082
						CHANNELS 3 Zrotation Yrotation Xrotation
						JOINT LeftArm
						{
							OFFSET 11.284140 -0.000015 -0.000008
							CHANNELS 3 Zrotation Yrotation Xrotation
							JOINT LeftForeArm
							{
								OFFSET 33.000084 0.000016 0.000002
								CHANNELS 3 Zrotation Yrotation Xrotation
								JOINT LeftHand
								{
									OFFSET 25.199783 0.000142 0.000437
									CHANNELS 3 Zrotation Yrotation Xrotation
									End Site
									{
										OFFSET 0.000000 0.000000 0.000000
									}
								}
							}
						}
					}
				}
			}
		}
	}
}
MOTION
Frames: 15
Frame Time: 0.033333
121.913251 0.000000 21.398930 180.000000 -10.380422 180.000000 1.622544 91.354797 0.105776 97.025472 -0.512988 -178.309640 -175.548101 -0.540802 -174.584703 -17.229154 -3.359794 -3.602535 89.014980 2.148402 -2.399346 21.454558 0.003109 0.000017 165.358866 9.436402 177.282491 -50.391995 0.771981 2.453983 77.442467 -0.098111 6.094496 21.454550 -0.003091 -0.000002 8.910466 -0.304922 0.095464 7.807742 -0.615519 0.170171 7.489643 -0.614616 0.173882 10.243892 -4.628680 -5.371734 -6.235402 9.130916 -8.259231 174.317629 -69.527112 4.550719 -22.731054 48.460660 31.883859 -33.765669 -18.315687 1.547685 8.107733 -5.729900 6.581484 -158.806529 73.707624 23.164411 -25.627566 -59.234426 -28.060172 -27.456071 15.468720 -1.212796 4.056527 23.416532 4.815383 
121.244869 0.000000 22.243971 180.000000 -10.964887 180.000000 1.272687 91.390404 0.242961 97.210101 -0.020676 -178.616317 -175.116269 -0.664306 -174.878948 -17.313647 -3.358773 -3.301699 89.262567 2.041735 -1.817160 21.454558 0.003108 0.000017 163.386253 8.158097 178.913281 -52.717668 1.092008 2.133740 77.798143 0.094724 6.081852 21.454550 -0.003091 -0.000001 8.964551 -0.246694 -0.010966 7.916400 -0.492004 -0.038752 7.598278 -0.492365 -0.035791 10.406435 -4.602500 -4.995150 -6.050365 8.672731 -7.727679 173.750505 -69.501048 5.136590 -22.783150 47.979490 32.079575 -33.301171 -18.064385 1.521143 8.423788 -5.488188 4.791731 -159.028469 73.855621 22.934414 -25.847944 -59.714329 -28.158611 -29.438211 16.092725 -1.288913 3.620767 24.806731 3.339850 
120.474612 0.000000 23.034117 180.000000 -11.532070 180.000000 0.971541 91.357887 0.383089 97.225057 0.430316 -178.939143 -174.924027 -0.771807 -175.407700 -17.769688 -3.267655 -2.877906 89.766574 1.837847 -1.302869 21.454558 0.003108 0.000018 161.961790 6.805205 -179.181912 -52.601619 1.441828 0.614910 77.630386 1.268758 6.474195 21.454553 -0.003092 0.000000 8.987024 -0.178392 -0.105955 7.961526 -0.349031 -0.223916 7.643433 -0.350514 -0.221808 10.358345 -4.825843 -4.699690 -6.042670 8.610996 -7.422770 173.221998 -69.688973 5.676077 -22.813067 48.063450 31.906494 -32.648359 -17.887610 1.495469 8.384818 -5.242889 3.836063 -159.079477 74.318824 22.874816 -25.613816 -60.159370 -28.461549 -31.589601 16.501143 -1.357746 2.187550 25.620815 0.440833 
119.607999 0.000000 23.772536 180.000000 -12.082147 180.000000 0.721550 91.235909 0.502262 97.152701 0.723698 -179.342845 -174.793461 -0.731201 -176.091347 -18.418660 -3.116541 -2.436798 90.492186 1.598268 -0.927409 21.454557 0.003108 0.000017 161.175840 5.432693 -178.443815 -50.360586 2.757762 -0.179056 77.692924 1.863954 6.753276 21.454543 -0.003091 0.000001 8.985291 -0.150390 -0.168803 7.958166 -0.288785 -0.347529 7.640083 -0.291012 -0.345785 10.145344 -4.647612 -4.539511 -5.976156 8.462072 -7.208150 172.724419 -69.844770 6.184512 -22.499855 48.196291 31.713538 -32.383972 -17.686703 1.476876 8.472985 -5.503092 3.481950 -159.219660 74.458419 22.729010 -25.190163 -60.061187 -29.407390 -33.447856 16.827838 -1.418326 0.744536 26.359741 -2.754059 
118.650548 0.000000 24.462393 180.000000 -12.615317 180.000000 0.465570 91.075607 0.598974 96.910283 0.870053 -179.850046 -174.688426 -0.578400 -176.718837 -18.911938 -3.026170 -2.101536 91.192711 1.431852 -0.533876 21.454557 0.003109 0.000018 160.778760 3.902893 -178.160335 -46.217052 3.844894 -0.026573 77.916653 1.759246 6.943800 21.454551 -0.003092 0.000001 8.944269 -0.166209 -0.201544 7.876283 -0.318282 -0.413911 7.558193 -0.320914 -0.411988 10.060921 -4.140699 -4.518329 -6.212828 8.089256 -7.076033 172.477603 -69.924649 6.436520 -22.005481 48.276989 31.915237 -32.331906 -17.616378 1.471244 8.623697 -6.043035 3.405124 -159.664114 74.448618 22.273623 -24.893364 -59.537693 -30.735698 -34.821763 16.863245 -1.451466 -0.293928 26.895540 -5.386321 
117.607779 0.000000 25.106853 180.000000 -13.131794 180.000000 0.249698 90.946487 0.669080 96.550549 0.993853 179.533891 -174.368063 -0.431396 -177.038298 -18.891738 -3.037441 -2.006577 91.731940 1.420715 -0.179532 21.454560 0.003107 0.000018 161.012270 2.145707 -177.998350 -40.212411 4.216940 0.733825 77.955415 1.172486 6.817191 21.454553 -0.003092 -0.000001 8.879634 -0.180389 -0.212541 7.747105 -0.346115 -0.436657 7.429023 -0.348883 -0.434563 9.861759 -4.130465 -4.573227 -6.567333 8.172944 -7.188693 172.168715 -70.023810 6.751572 -21.319536 48.455780 32.368874 -32.472984 -17.668350 1.477611 8.519955 -6.547210 3.390057 -160.045785 74.725323 21.878500 -24.951909 -59.110212 -32.056950 -35.568941 16.843827 -1.467535 -0.704300 26.657540 -6.788441 
116.485209 0.000000 25.709084 180.000000 -13.631811 180.000000 0.094233 90.845863 0.734606 96.130118 1.078006 179.016270 -173.811348 -0.317900 -177.164807 -18.415773 -3.079258 -1.958480 92.165698 1.426912 0.085841 21.454562 0.003107 0.000017 161.714509 0.373200 -178.053101 -33.159175 4.022065 2.091109 77.324032 0.119269 6.324036 21.454555 -0.003092 0.000000 8.801056 -0.200673 -0.228767 7.590098 -0.385880 -0.470176 7.271999 -0.388850 -0.467842 9.561391 -4.159172 -4.644275 -7.016491 8.375897 -7.364386 171.521746 -70.147593 7.414419 -20.457629 48.599347 33.330599 -32.610001 -17.791661 1.488483 8.399319 -6.864319 3.117641 -159.887366 74.974515 22.037204 -25.359109 -58.898333 -32.769509 -35.598263 16.687535 -1.458119 -0.991030 25.861693 -7.112214 
115.288358 0.000000 26.272250 180.000000 -14.115617 180.000000 -0.047091 90.742500 0.767716 95.600390 1.062556 178.572899 -173.171646 -0.143296 -177.138101 -17.636037 -3.124914 -1.951305 92.563933 1.446749 0.261635 21.454558 0.003109 0.000018 162.708643 -1.198594 -178.535203 -25.469917 3.548418 3.760828 76.343579 -1.197527 5.626244 21.454551 -0.003092 0.000002 8.698663 -0.242860 -0.233594 7.385516 -0.470298 -0.482175 7.067426 -0.473336 -0.479332 9.275470 -3.928061 -4.739985 -7.562288 8.396930 -7.505475 170.898805 -70.227711 8.053280 -19.717252 48.573430 34.327899 -32.580405 -17.728313 1.483779 8.230595 -6.925229 3.289401 -159.673772 75.018918 22.255313 -25.681807 -58.704294 -33.182664 -35.229187 16.372833 -1.429185 -0.940824 25.184929 -7.237840 
114.022744 0.000000 26.799519 180.000000 -14.583473 180.000000 -0.167142 90.671356 0.769691 95.001220 0.995139 178.447077 -172.541315 0.062697 -176.696816 -16.734271 -3.119366 -2.034855 92.790005 1.528655 0.464253 21.454557 0.003108 0.000017 163.798947 -2.322005 -179.199999 -18.090408 3.177740 4.565426 75.051129 -2.273903 3.665204 21.454551 -0.003091 0.000001 8.583653 -0.263368 -0.276268 7.155808 -0.509136 -0.568249 6.837708 -0.512695 -0.565169 8.825961 -4.078835 -4.901501 -7.908155 8.728884 -7.817829 170.906114 -70.166567 8.047921 -19.363299 48.374794 35.264588 -32.326018 -17.476214 1.462144 8.024913 -6.754934 3.998363 -160.380259 75.132812 21.530401 -25.332765 -58.672527 -33.414453 -34.771257 16.118777 -1.402256 -0.787721 24.454078 -7.329362 
112.693886 0.000000 27.294056 180.000000 -15.035654 180.000000 -0.265322 90.726692 0.809603 94.530323 1.272788 178.486416 -171.619226 -0.174806 -176.242923 -15.563903 -3.102161 -2.055631 92.778325 1.571008 0.690849 21.454557 0.003108 0.000017 165.027602 -3.404008 179.637568 -12.207513 2.851003 4.312447 72.661151 -2.736144 1.354084 21.454553 -0.003092 0.000001 8.498382 -0.177973 -0.294752 6.984817 -0.337829 -0.599675 6.666729 -0.341581 -0.597631 8.362743 -4.354415 -5.130915 -8.183055 8.885444 -8.158826 170.448136 -70.040100 8.523910 -19.320479 48.310382 36.152369 -31.571361 -17.186638 1.427630 7.946176 -6.329351 4.875533 -160.846474 75.397536 21.049719 -24.893931 -58.773129 -33.540429 -34.105901 15.835899 -1.368982 -0.374262 23.584843 -6.416445 
111.307303 0.000000 27.759027 180.000000 -15.472444 180.000000 -0.291712 90.679123 0.861175 94.225843 1.612564 178.585241 -170.770261 -0.528302 -176.122766 -15.066571 -3.043039 -1.847645 93.154553 1.458269 0.951675 21.454558 0.003109 0.000018 165.816024 -4.205503 178.909483 -10.513463 2.473625 3.164311 70.154621 -2.582482 -0.708185 21.454550 -0.003093 0.000000 8.443851 -0.063958 -0.272599 6.875113 -0.111606 -0.548504 6.557041 -0.115053 -0.547824 7.998905 -4.361521 -5.450634 -8.561631 8.864288 -8.527969 169.945625 -70.011017 9.042594 -19.684383 48.504701 36.360755 -30.428694 -16.703728 1.373407 7.705150 -5.804078 6.313070 -160.608101 75.444904 21.293034 -24.545188 -58.682212 -34.051966 -33.080597 15.546940 -1.327865 0.036522 22.450724 -4.934827 
109.868514 0.000000 28.197598 180.000000 -15.894138 180.000000 -0.225353 90.684288 1.010911 94.094115 2.412621 178.750974 -169.861504 -1.362702 -176.342043 -15.009288 -2.768929 -1.480190 93.577171 1.206692 1.008803 21.454557 0.003108 0.000018 166.647859 -4.959502 177.082025 -10.470729 2.785361 4.432642 69.273083 -3.568996 -0.902128 21.454555 -0.003092 0.000000 8.434257 0.193866 -0.240910 6.854889 0.401668 -0.469946 6.536786 0.398683 -0.472368 7.744086 -4.630057 -5.746867 -9.249177 8.992171 -8.964891 169.682007 -69.806685 9.321288 -20.245254 48.932537 36.184525 -29.062192 -16.316851 1.322121 8.041951 -5.328398 7.524967 -160.465131 75.436885 21.439388 -24.400284 -58.066676 -34.862436 -31.904906 15.160025 -1.278101 0.554001 20.819970 -3.386874 
108.383038 0.000000 28.612936 180.000000 -16.301039 180.000000 -0.038165 90.770813 1.247920 94.192645 3.601925 178.999578 -168.955739 -2.534195 -176.645084 -15.595216 -2.242791 -1.152350 93.823788 0.958498 0.898714 21.454557 0.003107 0.000017 167.898344 -5.955002 177.542312 -10.452927 3.040172 4.691084 69.959824 -3.714501 -0.800656 21.454553 -0.003091 -0.000000 8.455613 0.578974 -0.240135 6.896451 1.171230 -0.445459 6.578296 1.168380 -0.452530 7.875571 -4.771007 -5.957649 -10.107184 8.832323 -9.223167 169.715694 -69.498111 9.297496 -20.592966 49.618927 35.717887 -27.678510 -15.922283 1.271486 8.509299 -5.140698 8.818543 -160.586873 75.410008 21.315188 -24.440908 -57.291005 -35.318112 -30.268516 14.751486 -1.218955 0.595380 18.166413 -2.997674 
106.856392 0.000000 29.008206 180.000000 -16.693456 180.000000 0.169323 90.897377 1.457290 94.295964 4.394988 179.250597 -168.704908 -3.247804 -177.058516 -17.400846 -1.627994 -0.885759 93.521846 0.741125 0.672616 21.454557 0.003109 0.000017 169.124117 -6.602800 178.976132 -10.681069 3.140006 4.175545 70.937914 -3.459601 -1.183434 21.454553 -0.003093 0.000000 8.454584 0.878653 -0.305300 6.892802 1.773908 -0.557936 6.574557 1.770371 -0.568644 7.950110 -4.745303 -6.035658 -10.241841 8.604092 -9.243043 168.983265 -69.787294 10.041827 -20.336808 51.096741 35.090650 -26.637386 -15.855864 1.249055 8.363180 -4.937253 9.477108 -160.981780 75.666495 20.907810 -24.444132 -56.861236 -35.266244 -28.735176 14.367399 -1.165262 0.805785 15.486779 -3.505889 
105.294097 0.000000 29.386574 180.000000 -17.071705 180.000000 0.375035 91.025749 1.641491 94.402648 4.796265 179.629150 -169.079762 -3.644805 -177.762558 -20.318780 -0.949577 -0.399170 92.762131 0.356163 0.320164 21.454558 0.003108 0.000018 170.347814 -6.987197 -179.533886 -10.942756 3.082554 3.661974 71.989518 -3.292590 -1.873351 21.454553 -0.003092 0.000000 8.425335 1.065964 -0.426005 6.831583 2.155169 -0.788651 6.513288 2.150231 -0.801658 8.059440 -4.504835 -6.083482 -10.101647 8.317208 -9.169585 167.318803 -70.377497 11.733274 -19.172510 52.413472 35.385154 -26.685908 -15.838242 1.248770 8.973556 -4.720139 9.020328 -161.214389 75.866599 20.667418 -24.356074 -56.725022 -35.136310 -27.501712 14.154502 -1.129541 1.716566 13.187069 -3.558139 
